<svg width="30" height="30" fill="none" xmlns="http://www.w3.org/2000/svg"><path d="M10 15a5 5 0 1110-.001A5 5 0 0110 15zm-2.702 0a7.702 7.702 0 1015.404 0 7.702 7.702 0 00-15.404 0zm13.91-8.008a1.8 1.8 0 101.8-1.799 1.8 1.8 0 00-1.8 1.8zM8.94 27.21c-1.462-.067-2.257-.31-2.786-.516a4.66 4.66 0 01-1.725-1.122 4.628 4.628 0 01-1.122-1.724c-.206-.528-.45-1.324-.516-2.786-.073-1.581-.087-2.056-.087-6.062s.016-4.48.087-6.062c.067-1.462.312-2.256.516-2.785.273-.7.597-1.2 1.122-1.726a4.623 4.623 0 011.725-1.122c.528-.206 1.324-.45 2.786-.516 1.581-.072 2.056-.087 6.06-.087s4.48.016 6.062.087c1.462.067 2.256.312 2.785.516.7.272 1.2.598 1.726 1.122.525.525.85 1.025 1.122 1.726.206.528.45 1.323.516 2.785.072 1.583.087 2.056.087 6.062s-.015 4.48-.087 6.062c-.067 1.462-.312 2.257-.516 2.785-.273.7-.598 1.2-1.122 1.725a4.66 4.66 0 01-1.726 1.122c-.528.206-1.323.45-2.785.516-1.581.072-2.056.087-6.062.087s-4.48-.015-6.06-.087zM8.816.09C7.219.165 6.128.418 5.175.789a7.357 7.357 0 00-2.657 1.73 7.329 7.329 0 00-1.73 2.657C.417 6.128.164 7.219.09 8.815.017 10.416 0 10.928 0 15c0 4.073.017 4.585.09 6.184.074 1.597.327 2.688.698 3.641a7.333 7.333 0 001.73 2.657 7.376 7.376 0 002.657 1.73c.955.371 2.044.624 3.64.697 1.601.073 2.112.091 6.185.091 4.073 0 4.585-.017 6.184-.09 1.597-.074 2.688-.327 3.641-.698a7.377 7.377 0 002.657-1.73 7.348 7.348 0 001.73-2.657c.371-.953.626-2.044.697-3.64.073-1.601.09-2.111.09-6.185 0-4.073-.017-4.585-.09-6.184-.073-1.597-.326-2.688-.697-3.641a7.377 7.377 0 00-1.73-2.657 7.34 7.34 0 00-2.656-1.73c-.954-.371-2.045-.626-3.64-.697C19.585.018 19.074 0 15 0c-4.073 0-4.585.017-6.185.09z" fill="#fff"/></svg>