<svg width="27" height="30" fill="none" xmlns="http://www.w3.org/2000/svg"><path d="M10.873 20.428c.669 1.174 2.63 2.167 4.712 2.167 6.2 0 10.665-5.227 10.665-11.718C26.25 4.657 20.707 0 13.578 0 4.707 0 0 5.455 0 11.4c0 2.765 1.603 6.2 4.17 7.295.392.169.6.095.687-.249.069-.264.415-1.538.57-2.135a.527.527 0 00-.144-.54c-.847-.945-1.528-2.679-1.528-4.296 0-4.155 3.432-8.177 9.28-8.177 5.053 0 8.59 3.15 8.59 7.664 0 5.095-2.81 8.626-6.467 8.626-2.019 0-3.53-1.528-3.045-3.404.582-2.241 1.701-4.657 1.701-6.274 0-1.448-.848-2.653-2.601-2.653-2.065 0-3.72 1.955-3.72 4.572 0 1.67.617 2.796.617 2.796s-2.036 7.89-2.411 9.36c-.427 1.692-.231 4.117-.046 5.598.42.147.836.295 1.269.417.836-1.232 2.186-3.398 2.664-5.1.254-.872 1.287-4.472 1.287-4.472z" fill="#fff"/></svg>