<svg width="29" height="24" fill="none" xmlns="http://www.w3.org/2000/svg"><path d="M25.762 5.813v.75c0 7.762-5.925 16.725-16.725 16.725-3.337 0-6.412-.976-9.037-2.625.45.037.938.075 1.387.075A11.9 11.9 0 008.7 18.224a5.82 5.82 0 01-5.475-4.088 5.45 5.45 0 001.125.113 5.26 5.26 0 001.538-.225 5.837 5.837 0 01-4.725-5.738v-.075c.787.45 1.687.713 2.662.75A5.889 5.889 0 011.2 4.05c0-1.087.3-2.1.788-2.962A16.726 16.726 0 0014.1 7.238c-.112-.413-.15-.9-.15-1.35A5.874 5.874 0 0119.837 0c1.688 0 3.226.713 4.276 1.837 1.35-.262 2.587-.75 3.75-1.424-.45 1.387-1.388 2.512-2.588 3.262 1.2-.15 2.325-.45 3.375-.938a10.75 10.75 0 01-2.887 3.075z" fill="#fff"/></svg>